<svg width="90" height="90" viewBox="0 0 100 100" xmlns="http://www.w3.org/2000/svg">
  <defs>
    <linearGradient id="body" x1="0%" y1="0%" x2="100%" y2="100%">
      <stop offset="0%" stop-color="#ff4d6d"></stop>
      <stop offset="50%" stop-color="#ff1744"></stop>
      <stop offset="100%" stop-color="#8e24aa"></stop>
    </linearGradient>

    <radialGradient id="lens" cx="50%" cy="50%" r="50%">
      <stop offset="0%" stop-color="#ffe0f0"></stop>
      <stop offset="100%" stop-color="#f48fb1"></stop>
    </radialGradient>
  </defs>

  <!-- Stars -->
  <path d="M20 25 L22 30 L27 30 L23 33 L25 38 L20 35 L15 38 L17 33 L13 30 L18 30 Z" fill="#ff1744"></path>

  <path d="M78 72 L80 77 L85 77 L81 80 L83 85 L78 82 L73 85 L75 80 L71 77 L76 77 Z" fill="#ff1744"></path>

  <path d="M12 42 L13 45 L16 45 L14 47 L15 50 L12 48 L9 50 L10 47 L8 45 L11 45 Z" fill="#ff4d6d"></path>

  <!-- Telescope Body -->
  <g transform="rotate(-40 50 50)">
    <rect x="25" y="42" width="42" height="20" rx="10" fill="url(#body)"></rect>

    <!-- Back -->
    <rect x="18" y="45" width="12" height="14" rx="4" fill="#8e24aa"></rect>

    <!-- Front Lens -->
    <ellipse cx="67" cy="52" rx="12" ry="14" fill="#d81b60"></ellipse>

    <ellipse cx="69" cy="52" rx="9" ry="11" fill="url(#lens)" stroke="#ffffff" stroke-width="1.5"></ellipse>
  </g>
</svg>